HIERARCHY
ROOT Hips
{
	OFFSET	0.00	0.00	0.00
	CHANNELS 6 Xposition Yposition Zposition Zrotation Xrotation Yrotation
	JOINT LeftUpLeg
	{
		OFFSET	 0.126116	-0.014019	-0.065224
		CHANNELS 3 Zrotation Xrotation Yrotation
		JOINT LeftLeg
		{
			OFFSET	 0.000000	 0.000000	 0.569914
			CHANNELS 3 Zrotation Xrotation Yrotation
			JOINT LeftFoot
			{
				OFFSET	 0.000000	 0.000000	 0.544423
				CHANNELS 3 Zrotation Xrotation Yrotation
				JOINT LeftToeBase
				{
					OFFSET	 0.000000	 0.000000	 0.207117
					CHANNELS 3 Zrotation Xrotation Yrotation
					End Site
					{
						OFFSET	 0.000000	 0.000000	 0.207117
					}
				}
			}
		}
	}
	JOINT RightUpLeg
	{
		OFFSET	-0.124023	-0.008373	-0.065224
		CHANNELS 3 Zrotation Xrotation Yrotation
		JOINT RightLeg
		{
			OFFSET	 0.000000	 0.000000	 0.570047
			CHANNELS 3 Zrotation Xrotation Yrotation
			JOINT RightFoot
			{
				OFFSET	 0.000000	 0.000000	 0.544354
				CHANNELS 3 Zrotation Xrotation Yrotation
				JOINT RightToeBase
				{
					OFFSET	 0.000000	 0.000000	 0.207540
					CHANNELS 3 Zrotation Xrotation Yrotation
					End Site
					{
						OFFSET	 0.000000	 0.000000	 0.207540
					}
				}
			}
		}
	}
	JOINT Spine
	{
		OFFSET	 0.000184	-0.007763	 0.117403
		CHANNELS 3 Zrotation Xrotation Yrotation
		JOINT Spine1
		{
			OFFSET	 0.000000	 0.000000	 0.137269
			CHANNELS 3 Zrotation Xrotation Yrotation
			JOINT Spine2
			{
				OFFSET	 0.000000	 0.000000	 0.156879
				CHANNELS 3 Zrotation Xrotation Yrotation
				JOINT LeftShoulder
				{
					OFFSET	 0.080501	-0.002496	 0.160144
					CHANNELS 3 Zrotation Xrotation Yrotation
					JOINT LeftArm
					{
						OFFSET	 0.000000	 0.000000	 0.164363
						CHANNELS 3 Zrotation Xrotation Yrotation
						JOINT LeftForeArm
						{
							OFFSET	 0.000000	 0.000000	 0.364576
							CHANNELS 3 Zrotation Xrotation Yrotation
							JOINT LeftHand
							{
								OFFSET	 0.000000	 0.000000	 0.360812
								CHANNELS 3 Zrotation Xrotation Yrotation
								JOINT LeftHandIndex1
								{
									OFFSET	 0.000000	 0.000000	 0.086006
									CHANNELS 3 Zrotation Xrotation Yrotation
									JOINT LeftHandIndex2
									{
										OFFSET	 0.000000	 0.000000	 0.047237
										CHANNELS 3 Zrotation Xrotation Yrotation
										JOINT LeftHandIndex3
										{
											OFFSET	-0.004284	-0.000551	 0.038165
											CHANNELS 3 Zrotation Xrotation Yrotation
											End Site
											{
												OFFSET	-0.004284	-0.000551	 0.038165
											}
										}
									}
								}
							}
						}
					}
				}
				JOINT Neck
				{
					OFFSET	 0.000000	 0.000000	 0.176489
					CHANNELS 3 Zrotation Xrotation Yrotation
					JOINT Head
					{
						OFFSET	 0.000000	-0.001747	 0.077940
						CHANNELS 3 Zrotation Xrotation Yrotation
						End Site
						{
							OFFSET	 0.000000	-0.001747	 0.077940
						}
					}
				}
				JOINT RightShoulder
				{
					OFFSET	-0.080363	 0.000306	 0.159706
					CHANNELS 3 Zrotation Xrotation Yrotation
					JOINT RightArm
					{
						OFFSET	 0.000000	 0.000000	 0.164196
						CHANNELS 3 Zrotation Xrotation Yrotation
						JOINT RightForeArm
						{
							OFFSET	 0.000000	 0.000000	 0.365611
							CHANNELS 3 Zrotation Xrotation Yrotation
							JOINT RightHand
							{
								OFFSET	 0.000000	 0.000000	 0.360648
								CHANNELS 3 Zrotation Xrotation Yrotation
								JOINT RightHandIndex1
								{
									OFFSET	 0.000000	 0.000000	 0.069977
									CHANNELS 3 Zrotation Xrotation Yrotation
									JOINT RightHandIndex2
									{
										OFFSET	 0.000000	 0.000000	 0.052305
										CHANNELS 3 Zrotation Xrotation Yrotation
										JOINT RightHandIndex3
										{
											OFFSET	 0.009002	-0.000782	 0.042196
											CHANNELS 3 Zrotation Xrotation Yrotation
											End Site
											{
												OFFSET	 0.009002	-0.000782	 0.042196
											}
										}
									}
								}
							}
						}
					}
				}
			}
		}
	}
}
MOTION
Frames:    7
Frame Time: 0.03333334
-0.643391	-0.131828	 1.249036	-160.713000	 6.067488	 8.862921	 16.022200	-14.727090	 163.583100	-9.117207	-31.369500	-3.744055	-75.097750	 76.768890	 72.583830	-2.385833	 28.452760	 0.000004	-3.268231	-49.048120	 175.188100	-29.239120	-57.848660	-15.676140	 24.047390	 32.673550	-35.236180	 2.384659	 28.388700	-0.000001	 68.781980	-15.833430	-15.504480	 46.248530	 25.538830	-1.335944	-9.579301	-3.702724	-0.248013	-91.776210	 78.527380	-180.000000	 11.456770	 31.298540	-44.243420	-14.244790	 1.393233	-9.827722	 7.706886	-3.362311	-4.156589	-4.131196	 21.524690	 0.986298	-5.167839	 0.733520	 3.519257	-1.378229	 35.397820	-2.634230	-14.114120	 16.453360	-7.496464	-26.556460	 3.388190	 5.500288	 89.782160	 78.203870	 179.999900	 4.333595	 59.467670	 0.367661	 3.949745	 1.326421	 9.842759	 102.879900	-24.206500	-8.064207	 5.715225	 19.176060	-3.692089	 5.027514	 0.245388	-9.378011	-2.350882	 35.473990	 5.254307
-0.643405	-0.131296	 1.249720	-161.195600	 5.976969	 9.362435	 16.709330	-14.869790	 163.061800	-8.823739	-31.359040	-3.588553	-79.714260	 78.101120	 76.520260	-2.385833	 28.452760	 0.000004	-1.610802	-48.886540	 175.181000	-24.443350	-58.285670	-11.579960	 36.586990	 42.880660	-40.869340	 2.384659	 28.388700	-0.000001	 68.792290	-17.452440	-16.844870	 46.761280	 27.860880	-2.389731	-9.889032	-4.351265	 0.119062	-91.776190	 78.527430	-180.000000	 11.388860	 31.114630	-44.320780	-13.693000	 1.388788	-9.828802	 8.392448	-2.903455	-4.393626	-4.131196	 21.524690	 0.986298	-5.167839	 0.733520	 3.519257	-1.378229	 35.397820	-2.634230	-13.993570	 16.309380	-7.831284	-26.736120	 3.164356	 5.299273	 89.782100	 78.203900	 180.000000	 4.294967	 59.626010	 0.562295	 3.075571	 1.318930	 9.844096	 103.083100	-23.678430	-7.078197	 5.715225	 19.176060	-3.692089	 5.027514	 0.245388	-9.378011	-2.350882	 35.473990	 5.254307
-0.643403	-0.131027	 1.250384	-162.072100	 5.962142	 9.486200	 18.674750	-15.148210	 163.027000	-8.218643	-31.198120	-3.255561	-91.378600	 79.253180	 87.269990	-2.385833	 28.452760	 0.000004	-3.309171	-48.983260	 174.161600	-20.472470	-58.471900	-8.179873	 43.110580	 48.587880	-43.628990	 2.384659	 28.388700	-0.000001	 69.537020	-18.146050	-17.647990	 46.908650	 29.298900	-2.423203	-10.174840	-4.743621	 0.342589	-91.776110	 78.527380	 179.999900	 11.131540	 30.904020	-44.259010	-12.962590	 1.383156	-9.828625	 8.892105	-2.617210	-4.608243	-4.131196	 21.524690	 0.986298	-5.167839	 0.733520	 3.519257	-1.378229	 35.397820	-2.634230	-14.016630	 16.376650	-7.701964	-26.782120	 2.971991	 4.978176	 89.782140	 78.287790	 179.994200	 3.881137	 60.097010	 1.043739	 1.772209	 1.308787	 9.839682	 102.706500	-23.238290	-5.472456	 5.715225	 19.176060	-3.692089	 5.027514	 0.245388	-9.378011	-2.350882	 35.473990	 5.254307
-0.642926	-0.131079	 1.250567	-163.339900	 6.460431	 9.362401	 20.728220	-15.803110	 163.502400	-6.785371	-31.113280	-2.501854	-112.644800	 80.363550	 106.703300	-2.385833	 28.452760	 0.000004	-3.399468	-49.728970	 173.955100	-18.401790	-58.387420	-6.398393	 47.000550	 52.172930	-45.144960	 2.384659	 28.388700	-0.000001	 71.208310	-17.830440	-17.376420	 46.576230	 28.817940	-0.741188	-10.469630	-4.257507	-0.182804	-91.776180	 78.527400	 180.000000	 11.077760	 30.559830	-44.309990	-12.218910	 1.377443	-9.829580	 9.404331	-2.294498	-4.845919	-4.131196	 21.524690	 0.986298	-5.167839	 0.733520	 3.519257	-1.378229	 35.397820	-2.634230	-13.902610	 16.858230	-7.792983	-26.768670	 2.754103	 5.228943	 89.782110	 78.293620	 179.993500	 2.578223	 60.493010	 2.289767	 0.363723	 1.297859	 9.836708	 100.988900	-24.634210	-4.536504	 5.715225	 19.176060	-3.692089	 5.027514	 0.245388	-9.378011	-2.350882	 35.473990	 5.254307
-0.642945	-0.130061	 1.250836	-163.397800	 6.604549	 7.579623	 21.813350	-14.872100	 165.462200	-5.207379	-30.265030	-1.641948	-154.845700	 79.418400	 146.824800	-2.385833	 28.452760	 0.000004	 1.287854	-49.960320	 178.063200	-18.063500	-58.674180	-6.127555	 56.115200	 53.751550	-53.119900	 2.384659	 28.388700	-0.000001	 71.870620	-18.167600	-15.412040	 46.777390	 30.460220	-2.350651	-10.574790	-5.547040	 0.072267	-91.776170	 78.527360	-180.000000	 10.991210	 30.439580	-44.283520	-11.724020	 1.373657	-9.830041	 9.820742	-1.995200	-5.053639	-4.131196	 21.524690	 0.986298	-5.167839	 0.733520	 3.519257	-1.378229	 35.397820	-2.634230	-13.586540	 17.148860	-8.061882	-26.763590	 2.916770	 6.426672	 89.782160	 78.298300	 179.992700	 0.695269	 60.622240	 4.097884	-0.460011	 1.291650	 9.835376	 100.391300	-24.648370	-2.747855	 5.715225	 19.176060	-3.692089	 5.027514	 0.245388	-9.378011	-2.350882	 35.473990	 5.254307
-0.642376	-0.129379	 1.250633	-163.277500	 5.932662	 6.091642	 21.598610	-13.026420	 166.730000	-3.912016	-29.433870	-0.963442	-168.207200	 77.608020	 158.970000	-2.385833	 28.452760	 0.000004	 4.805484	-49.045700	-178.776300	-17.856700	-58.832920	-5.895468	 60.475070	 54.716970	-56.528690	 2.384659	 28.388700	-0.000001	 72.677640	-16.335220	-13.509680	 46.460240	 29.546500	-3.346840	-10.543180	-5.999642	 1.018460	-91.776230	 78.527400	-179.999900	 11.327090	 29.897380	-44.372400	-11.408120	 1.371375	-9.831123	 10.140470	-1.739089	-5.226627	-4.131196	 21.524690	 0.986298	-5.167839	 0.733520	 3.519257	-1.378229	 35.397820	-2.634230	-13.176920	 17.124060	-8.580006	-26.839270	 3.245667	 7.918485	 89.782230	 78.299800	 179.992900	-1.870091	 60.770810	 6.332734	-0.479502	 1.292041	 9.835215	 100.136900	-27.595790	-0.289348	 5.715225	 19.176060	-3.692089	 5.027514	 0.245388	-9.378011	-2.350882	 35.473990	 5.254307
-0.640490	-0.128678	 1.250233	-163.541300	 5.011725	 6.319909	 22.591700	-12.262570	 166.021600	-5.312161	-29.234520	-1.642409	-155.895900	 80.520000	 147.870800	-2.385833	 28.452760	 0.000004	 5.564296	-47.841270	-178.852800	-17.441230	-58.503020	-5.583840	 60.173300	 56.166720	-55.407010	 2.384659	 28.388700	-0.000001	 73.367460	-13.896080	-13.499230	 46.016400	 26.740120	-2.797756	-10.614120	-5.029242	 1.925919	-91.776140	 78.527400	 180.000000	 12.112760	 29.001520	-44.716000	-11.226230	 1.370417	-9.834517	 10.324750	-1.524469	-5.372225	-4.131196	 21.524690	 0.986298	-5.167839	 0.733520	 3.519257	-1.378229	 35.397820	-2.634230	-12.816480	 17.122140	-9.195254	-26.977290	 3.241288	 8.985613	 89.782140	 78.298450	 179.993400	-4.876218	 60.820510	 8.880101	 1.010953	 1.304340	 9.839728	 101.252200	-34.106820	 2.929440	 5.715225	 19.176060	-3.692089	 5.027514	 0.245388	-9.378011	-2.350882	 35.473990	 5.254307
